<svg id="レイヤー_1" data-name="レイヤー 1" xmlns="http://www.w3.org/2000/svg" viewBox="0 0 473.64 75.38"><defs><style>.cls-1{fill:#fff;}</style></defs><title>gralogo</title><path class="cls-1" d="M256.38,273.8l-5.56,5.27a42.48,42.48,0,0,0-13.15-9,35.38,35.38,0,0,0-13.93-3,33.22,33.22,0,0,0-16.08,4.15,30.1,30.1,0,0,0-11.83,11.25,29,29,0,0,0-4.2,15A29.62,29.62,0,0,0,196,312.86a30.84,30.84,0,0,0,12,11.47,34.52,34.52,0,0,0,16.78,4.17q11.07,0,18.74-6.25a24.65,24.65,0,0,0,9.08-16.2H229.69v-6.93h30.93q-0.1,16.64-9.88,26.42t-26.18,9.78q-19.91,0-31.52-13.56a36.06,36.06,0,0,1-8.93-24.15,37,37,0,0,1,5.12-19A36.43,36.43,0,0,1,203.3,264.9a40.94,40.94,0,0,1,20.2-5,44.92,44.92,0,0,1,17.17,3.29A51.27,51.27,0,0,1,256.38,273.8Z" transform="translate(-184.12 -259.95)"/><path class="cls-1" d="M286.43,261.75h14.3q12,0,16.2,1A18.49,18.49,0,0,1,327.32,269a17.91,17.91,0,0,1,4,11.85,19.16,19.16,0,0,1-2.76,10.31,17.2,17.2,0,0,1-7.88,6.72q-5.12,2.27-14.15,2.32l25.81,33.33h-8.87L297.66,300.2H293.6v33.33h-7.17V261.75Zm7.17,7v24.4l12.36,0.1q7.18,0,10.63-1.37a11.06,11.06,0,0,0,5.38-4.37,12.14,12.14,0,0,0,1.93-6.71,11.64,11.64,0,0,0-2-6.56,10.9,10.9,0,0,0-5.13-4.22q-3.18-1.27-10.56-1.27H293.6Z" transform="translate(-184.12 -259.95)"/><path class="cls-1" d="M384.82,261.75l33.47,71.77h-7.75l-11.29-23.62H368.34l-11.18,23.62h-8l33.91-71.77h1.76ZM383.92,277l-12.3,26h24.54Z" transform="translate(-184.12 -259.95)"/><path class="cls-1" d="M438,261.75h14.3q12.29,0,16.59,1.07A18.41,18.41,0,0,1,478.92,269a20.09,20.09,0,0,1,.1,23.66A18.73,18.73,0,0,1,468.53,299q-4.88,1.17-18.25,1.17h-5.12v33.37H438V261.75Zm7.17,7v24.35l12.15,0.15q7.37,0,10.78-1.34a11.05,11.05,0,0,0,5.37-4.33,12,12,0,0,0,2-6.7,11.84,11.84,0,0,0-2-6.6,10.77,10.77,0,0,0-5.15-4.26q-3.2-1.27-10.47-1.27H445.15Z" transform="translate(-184.12 -259.95)"/><path class="cls-1" d="M500,261.75h7.17v30.1h36.54v-30.1h7.17v71.77h-7.17V298.88H507.14v34.64H500V261.75Z" transform="translate(-184.12 -259.95)"/><path class="cls-1" d="M581.83,261.75H589v71.77h-7.17V261.75Z" transform="translate(-184.12 -259.95)"/><path class="cls-1" d="M615.76,320.16l6.1-3.66q6.44,11.86,14.88,11.86a14.26,14.26,0,0,0,6.78-1.68,11.92,11.92,0,0,0,4.83-4.51,11.69,11.69,0,0,0,1.66-6,12.17,12.17,0,0,0-2.44-7.07q-3.37-4.78-12.29-11.52t-11.17-9.81a17.93,17.93,0,0,1-3.81-11,16.65,16.65,0,0,1,2.25-8.54,16,16,0,0,1,6.32-6.07,18.21,18.21,0,0,1,8.86-2.22,18.88,18.88,0,0,1,9.49,2.51q4.42,2.51,9.34,9.25l-5.86,4.44q-4.05-5.37-6.9-7.07a11.9,11.9,0,0,0-6.22-1.71,9.85,9.85,0,0,0-7.1,2.63,8.62,8.62,0,0,0-2.76,6.49,11,11,0,0,0,1,4.54,16.72,16.72,0,0,0,3.56,4.78q1.42,1.37,9.27,7.17,9.32,6.88,12.78,12.25A19.74,19.74,0,0,1,657.77,316a18.3,18.3,0,0,1-5.93,13.56,19.93,19.93,0,0,1-14.42,5.76,21.15,21.15,0,0,1-11.86-3.49Q620.25,328.35,615.76,320.16Z" transform="translate(-184.12 -259.95)"/></svg>