<svg id="Layer_3" data-name="Layer 3" xmlns="http://www.w3.org/2000/svg" viewBox="0 0 80 80"><defs><style>.cls-1{fill:#333;}</style></defs><title>link-b</title><path class="cls-1" d="M3143.49,1017.94l-4,4a9.06,9.06,0,0,1-12.72,0,8.8,8.8,0,0,1,0-12.51l14.9-14.78c3.09-3.06,8.9-7.57,13.13-3.37a5,5,0,1,0,7-7c-7.2-7.14-17.83-5.82-27.1,3.37l-14.9,14.78a18.71,18.71,0,0,0,0,26.58,19,19,0,0,0,26.69,0l4.05-4A5,5,0,1,0,3143.49,1017.94Zm45.16-57.43c-7.73-7.67-18.54-8.09-25.69-1l-5,5a5,5,0,0,0,7,7l5-5c3.71-3.68,8.56-2.15,11.73,1a8.8,8.8,0,0,1,0,12.52l-15.9,15.77c-7.27,7.21-10.68,3.83-12.13,2.38a5,5,0,1,0-7,7,15.63,15.63,0,0,0,11.14,5c4.89,0,10.05-2.46,15-7.34l15.9-15.77A18.71,18.71,0,0,0,3188.64,960.52Z" transform="translate(-3114.19 -954.47)"/></svg>