<svg id="レイヤー_1" data-name="レイヤー 1" xmlns="http://www.w3.org/2000/svg" viewBox="0 0 664.58 183.04"><defs><style>.cls-1{fill:#333;}.cls-2{fill:none;stroke:#333;stroke-miterlimit:10;stroke-width:1.5px;}</style></defs><title>bank-guide</title><path class="cls-1" d="M181.29,486.31a26.1,26.1,0,0,1-3.94.27h-0.69a8.46,8.46,0,0,1-3.76-.56,1.77,1.77,0,0,1-1-1.61,3.06,3.06,0,0,1,1.2-2.33l0.64,0.47a2.61,2.61,0,0,0-.95,1.79,1.12,1.12,0,0,0,.85,1.07,11.68,11.68,0,0,0,3.48.33,27.19,27.19,0,0,0,4-.29Zm-0.83-7.45a21.5,21.5,0,0,0-3,1.45l-0.42-.59,1.79-.93,0-.12q-2,0-6.12.19l0-.82q2.71-.11,6.29-0.11l1.19,0Zm0.91-.81-0.67.3a13.76,13.76,0,0,0-.86-1.64l0.64-.29A12.22,12.22,0,0,1,181.38,478.05Zm1.63-.24-0.67.28a11.43,11.43,0,0,0-.84-1.62l0.61-.29A14.16,14.16,0,0,1,183,477.81Z" transform="translate(-145.61 -368.94)"/><path class="cls-1" d="M185.7,482.89a14.29,14.29,0,0,1-1.82,1.29l-0.43-.61a15.79,15.79,0,0,0,3.28-2.68h-3v-0.67h3.57a8.67,8.67,0,0,0,.7-1.07l0.9,0.16a4.57,4.57,0,0,1-.56.9h6.37v0.67h-4.55v1.31h3.63v3.22a0.89,0.89,0,0,1-.28.69,1.1,1.1,0,0,1-.77.26h-1.21l-0.12-.76h1a0.42,0.42,0,0,0,.5-0.44v-2.27h-2.72v4.31h-0.92v-4.31h-2.62v3.61H185.7v-3.61Zm-1-3.29-0.2-.64a27.26,27.26,0,0,0,4-.89l-2.68-.77,0.38-.64q1,0.24,3.46,1a17.18,17.18,0,0,0,2.78-1.29l0.64,0.54a13,13,0,0,1-2.38,1.12q1.72,0.55,2.84,1l-0.54.66q-1.08-.46-3.4-1.24A29.25,29.25,0,0,1,184.66,479.6Zm3.11,1.29q-0.63.71-1.28,1.31h2.74V480.9h-1.46Z" transform="translate(-145.61 -368.94)"/><path class="cls-1" d="M195.67,486.91v-0.7h4.86v-1.12h-4.07v-0.67h4.07V483.3H196v-0.69h10.23v0.69H201.5v1.11h4.15v0.67H201.5v1.13h5v0.7H195.67Zm1.78-5.4a1.09,1.09,0,0,1-.72-0.23,0.76,0.76,0,0,1-.28-0.61v-2.2h-0.7V477.8h2.44v-1.22H199v1.22h2.14v0.66h-3.86v1.89a0.44,0.44,0,0,0,.52.48h2.87v0.67h-3.28Zm6.09,0.49-0.11-.73h1.11a0.71,0.71,0,0,0,.47-0.15,1.7,1.7,0,0,0,.26-1h-2.57a4.66,4.66,0,0,1-1.14,2.09l-0.6-.38a4.12,4.12,0,0,0,.6-1,4.77,4.77,0,0,0,.38-1.22,11.34,11.34,0,0,0,.1-1.74v-0.49s0-.08,0-0.11v-0.49h4.17v1.1q0,0.94-.09,1.91a7.39,7.39,0,0,1-.21,1.34,1.06,1.06,0,0,1-.46.59,1.6,1.6,0,0,1-.87.22h-1Zm1.77-2.38q0-.52,0-0.83h-2.46a7.49,7.49,0,0,1-.08.83h2.5Zm0.05-1.34v-0.89H202.9v0.89h2.45Z" transform="translate(-145.61 -368.94)"/><path class="cls-1" d="M213.39,486.67l-0.23-.79a6.61,6.61,0,0,0,3.23-1.1,3.52,3.52,0,0,0,.26-5.3,4.81,4.81,0,0,0-3-.95,12.16,12.16,0,0,1-1.13,5.26q-1.07,2.11-2.67,2.11a1.79,1.79,0,0,1-1.57-.85,3.61,3.61,0,0,1-.57-2.07,4.82,4.82,0,0,1,1.73-3.61,6.31,6.31,0,0,1,7.79-.49,3.64,3.64,0,0,1,1.45,3,4.06,4.06,0,0,1-1.46,3.37A6.85,6.85,0,0,1,213.39,486.67Zm-0.68-8.06a5,5,0,0,0-2.92,1.54,4.08,4.08,0,0,0-1.22,2.89,2.77,2.77,0,0,0,.36,1.45,1.11,1.11,0,0,0,1,.59q1.1,0,1.91-2A12.92,12.92,0,0,0,212.71,478.61Z" transform="translate(-145.61 -368.94)"/><path class="cls-1" d="M229.44,486.46h-9.21v-0.84h8.2v-6.83h-8.09V478h9.09v8.47Z" transform="translate(-145.61 -368.94)"/><path class="cls-1" d="M241.92,482.55h-9.69v-0.87h9.69v0.87Z" transform="translate(-145.61 -368.94)"/><path class="cls-1" d="M254.81,486.34L254,487q-1.61-1.65-4.39-4a18.31,18.31,0,0,1-5.79,3.95l-0.45-.74a16.89,16.89,0,0,0,4.81-3.12,12,12,0,0,0,3.35-4.67h-6.69v-0.81h7.74l0.24,0.22a12.93,12.93,0,0,1-2.63,4.54Q252,483.74,254.81,486.34Z" transform="translate(-145.61 -368.94)"/><path class="cls-1" d="M261.39,486.67l-0.23-.79a6.61,6.61,0,0,0,3.23-1.1,3.52,3.52,0,0,0,.26-5.3,4.81,4.81,0,0,0-3-.95,12.16,12.16,0,0,1-1.13,5.26q-1.07,2.11-2.67,2.11a1.79,1.79,0,0,1-1.57-.85,3.61,3.61,0,0,1-.57-2.07,4.82,4.82,0,0,1,1.73-3.61,6.31,6.31,0,0,1,7.79-.49,3.64,3.64,0,0,1,1.45,3,4.06,4.06,0,0,1-1.46,3.37A6.85,6.85,0,0,1,261.39,486.67Zm-0.68-8.06a5,5,0,0,0-2.92,1.54,4.08,4.08,0,0,0-1.22,2.89,2.77,2.77,0,0,0,.36,1.45,1.11,1.11,0,0,0,1,.59q1.1,0,1.91-2A12.92,12.92,0,0,0,260.71,478.61Z" transform="translate(-145.61 -368.94)"/><path class="cls-1" d="M275,486.11a24.78,24.78,0,0,0,1-2.42l1,0.23q-0.37.77-1.08,2.19h2.32v0.71H268v-0.71h2.2a18.94,18.94,0,0,0-.83-2.19l0.9-.23,0.9,2.42h1.44V483h-4.14v-0.73h4.14v-1.73h-2.34v-0.67a16.32,16.32,0,0,1-2.5,1.45l-0.43-.62a13.57,13.57,0,0,0,2.85-1.79,9.07,9.07,0,0,0,2.32-2.37h1.24a10.84,10.84,0,0,0,2.2,2.17,12.87,12.87,0,0,0,3,1.77l-0.5.71a13.39,13.39,0,0,1-2.92-1.75,12,12,0,0,1-2.38-2.26,13.52,13.52,0,0,1-2.91,2.68H276v0.69h-2.53v1.73h4.32V483h-4.32v3.14H275Z" transform="translate(-145.61 -368.94)"/><path class="cls-1" d="M283.34,486.63H281v0.44h-0.79v-3.47l-0.63.28-0.31-.54a9.06,9.06,0,0,0,2.51-1.47,5.48,5.48,0,0,1-.95-1.28,7.55,7.55,0,0,1-.94,1l-0.42-.42a7.4,7.4,0,0,0,1.79-2.79l0.74,0.15a4.54,4.54,0,0,1-.33.74H284l0.29,0.27a6,6,0,0,1-1.46,2.3,7.17,7.17,0,0,0,2.3,1.21l-0.37.62a7.72,7.72,0,0,1-2.44-1.37,9.8,9.8,0,0,1-2,1.26h3.91V487h-0.81v-0.4Zm0.87-7.55v-0.93h-3.91v1h-0.69v-1.66h2.24v-1h0.83v1h2.24v1.56h-0.71ZM281,486h2.35v-1.78H281V486Zm1.27-4.59a5,5,0,0,0,1-1.56h-1.93l-0.1.16A5,5,0,0,0,282.26,481.39Zm2.58,5.74-0.35-.59a8,8,0,0,0,2.22-1.34l0.52,0.57A7.9,7.9,0,0,1,284.85,487.14Zm0.74-2.09v-6.33h1.61l0.37-1.15h-2.26v-0.69h5.4v0.69h-2.27L288,478.72h2.24V485h-4.62Zm0.86-4.45h2.89v-1.22h-2.89v1.22Zm0,1.8h2.89v-1.18h-2.89v1.18Zm2.89,0.63h-2.89v1.34h2.89V483Zm1.16,4.13a9.08,9.08,0,0,1-2.16-1.39l0.52-.55a8.49,8.49,0,0,0,2.12,1.27Z" transform="translate(-145.61 -368.94)"/><path class="cls-1" d="M298.74,484.94h-0.87V483q0-.34,0-0.58-2.7,1.35-2.7,2.46a1,1,0,0,0,.6.88,6.33,6.33,0,0,0,2.54.33,24.61,24.61,0,0,0,3.67-.22l0.06,0.85a27.91,27.91,0,0,1-3.22.16,8.69,8.69,0,0,1-3.67-.49,1.54,1.54,0,0,1-.86-1.41,2.33,2.33,0,0,1,.75-1.61,9.65,9.65,0,0,1,2.64-1.72,0.87,0.87,0,0,0-.86-0.53,5.07,5.07,0,0,0-1.51.25,6.35,6.35,0,0,0-2,1.28l-1,.82-0.5-.6A10.85,10.85,0,0,0,295,479h-2.73v-0.76h3.05a8.88,8.88,0,0,0,.42-1.41l1,0.08a8.89,8.89,0,0,1-.4,1.32h4.35V479H296a12.52,12.52,0,0,1-1.14,1.78l0.09,0a3,3,0,0,1,.9-0.28,5.6,5.6,0,0,1,1-.14,1.57,1.57,0,0,1,1.55.85L301.9,480l0.39,0.79q-1.22.4-3.62,1.29a7.21,7.21,0,0,1,.07,1.11v1.78Z" transform="translate(-145.61 -368.94)"/><path class="cls-1" d="M180.65,504.27l-0.19-.79q0.74-.14,2-0.46v-2.57h-1.59v-0.72h1.59v-2.19h0.91v2.19h1.11v0.72h-1.11v2.31q0.87-.25,1.24-0.4l0.15,0.66a12.43,12.43,0,0,1-1.38.49v3.83a0.68,0.68,0,0,1-.31.59,1.21,1.21,0,0,1-.72.22h-1.36l-0.11-.83h1.11a0.39,0.39,0,0,0,.47-0.42V503.8Q181.31,504.12,180.65,504.27Zm4.45-6.72H186V499a26.62,26.62,0,0,0,4.54-1.12l0.47,0.72a21.24,21.24,0,0,1-2.22.56q-1.57.33-2.8,0.52v0.8a0.46,0.46,0,0,0,.35.5,11.12,11.12,0,0,0,2,.1q1,0,1.37,0a1.58,1.58,0,0,0,.5-0.11,0.51,0.51,0,0,0,.24-0.19,1.12,1.12,0,0,0,.09-0.44q0-.33,0-0.74l0.8,0.12v1.07a0.9,0.9,0,0,1-.24.66,1.31,1.31,0,0,1-.74.33,15.31,15.31,0,0,1-2,.08,21.73,21.73,0,0,1-2.29-.08,1.38,1.38,0,0,1-.82-0.32,0.92,0.92,0,0,1-.24-0.67v-3.23Zm5,10.15h-4v0.37h-0.91V502.8H191v5.27h-0.9V507.7Zm0-2.87v-1.36h-4v1.36h4Zm-4,2.17h4v-1.48h-4V507Z" transform="translate(-145.61 -368.94)"/><path class="cls-1" d="M195.43,505.18a4,4,0,0,0,2.14,1.55l0.11,0v-5.46h-3.21V500.6h7.25v0.71h-3.12v2.18h3.81v0.7h-3.81V507a17.86,17.86,0,0,0,3,.19l2,0-0.2.76h-1q-1.92,0-2.8-.06a12.16,12.16,0,0,1-1.7-.23,5.66,5.66,0,0,1-1.58-.59,4.41,4.41,0,0,1-1.24-1,5,5,0,0,1-2,2.09l-0.46-.59a4.05,4.05,0,0,0,1.28-1.19,4.88,4.88,0,0,0,.68-1.49,8.86,8.86,0,0,0,.21-2.17v-0.21h0.89A11.08,11.08,0,0,1,195.43,505.18Zm7.13-4.34v-1.35h-8.84v1.43h-0.84v-2.16h4.83v-1.31h0.94v1.31h4.78v2.08h-0.87Z" transform="translate(-145.61 -368.94)"/><path class="cls-1" d="M213.9,506.85h-7.68v0.91h-0.93v-9.32h9.56v9.33h-1v-0.93Zm-7.68-.77h7.68v-6.89h-7.68v6.89Z" transform="translate(-145.61 -368.94)"/><path class="cls-1" d="M218.27,499.17v2.19a15.86,15.86,0,0,1-.47,4.27,7.25,7.25,0,0,1-1,2.36l-0.55-.46a11.33,11.33,0,0,0,1.19-5.63v-3.43h4.49v-1h0.9v1h4.68v0.7h-9.19Zm0.11,8.72v-0.72h4.13v-1.65h-3.45v-0.71h3.45v-5.2h0.87v5.2h3.82v0.71h-3.82v1.65h4.15v0.72h-9.14Zm1.51-4.65a5,5,0,0,1-1,1l-0.38-.5a3.84,3.84,0,0,0,.88-1.06,3.92,3.92,0,0,0,.49-1.24,8.26,8.26,0,0,0,.11-1.49h0.77q0,0.64,0,1.05a4.17,4.17,0,0,0,.54,1.36,4.86,4.86,0,0,0,.89,1.18l-0.49.59a4.9,4.9,0,0,1-1.24-1.8A4.23,4.23,0,0,1,219.88,503.25Zm5.2,0.11a4,4,0,0,1-1,.88l-0.44-.5a4.26,4.26,0,0,0,1.28-1.76,3.46,3.46,0,0,0,.2-0.81q0-.37,0-1.25H226q0,0.37,0,1.15a3.6,3.6,0,0,0,.62,1.34,7.2,7.2,0,0,0,1.16,1.31l-0.55.52a5.79,5.79,0,0,1-1.51-1.91A4.2,4.2,0,0,1,225.08,503.36Z" transform="translate(-145.61 -368.94)"/><path class="cls-1" d="M231,507.55l-0.84.19a13.94,13.94,0,0,1-.6-4.18,19.63,19.63,0,0,1,.8-5.31l0.9,0.16a17.86,17.86,0,0,0-.81,5.2A14,14,0,0,0,231,507.55Zm8-.29a22.89,22.89,0,0,1-2.4.13,11.45,11.45,0,0,1-2.43-.19,2.4,2.4,0,0,1-1.22-.63,1.58,1.58,0,0,1-.42-1.13,3.51,3.51,0,0,1,.88-2.13l0.68,0.36a2.5,2.5,0,0,0-.72,1.71,0.87,0.87,0,0,0,.39.74,2.31,2.31,0,0,0,1,.37,14.37,14.37,0,0,0,1.85.09,18.89,18.89,0,0,0,2.34-.14v0.81ZM239,499.81l-1.76,0q-1.21,0-4.39.16,0-.26,0-0.79,3-.18,4.9-0.18l1.25,0v0.05Q238.94,499.33,239,499.81Z" transform="translate(-145.61 -368.94)"/><path class="cls-1" d="M240.46,504.22l-0.15-.76A16.71,16.71,0,0,0,242,503v-2.47h-1.31v-0.69H242v-2.29h0.87v2.29h1v0.69h-1v2.17q0.7-.25,1-0.39l0.12,0.62a9.92,9.92,0,0,1-1.14.51v3.9a0.65,0.65,0,0,1-.29.56,1.14,1.14,0,0,1-.68.21h-1.12l-0.1-.75h0.91A0.35,0.35,0,0,0,242,507v-3.21Q241,504.09,240.46,504.22Zm4.79,3.87-0.16-.74,1.17-.15v-4.36h-1A11,11,0,0,1,244,508l-0.65-.39a8.18,8.18,0,0,0,.77-2.24,13.85,13.85,0,0,0,.29-2.89V498h6.95v0.7h-6.12v3.47h6.06v0.69h-2.22a8.23,8.23,0,0,0,.56,2,11.5,11.5,0,0,0,1.27-1.07l0.56,0.53a18.27,18.27,0,0,1-1.52,1.15,7.5,7.5,0,0,0,1.89,2.14l-0.62.6a7.14,7.14,0,0,1-2-2.37,8.12,8.12,0,0,1-.93-2.94h-1.17v4.24q1.52-.21,2.07-0.34l0.06,0.67q-0.43.12-1.81,0.35T245.25,508.09Zm0.73-7.38V500h5v0.7h-5Z" transform="translate(-145.61 -368.94)"/><path class="cls-1" d="M256.34,508.11l-0.22-.77a7.91,7.91,0,0,0,3.86-1.12q1.34-.92,1.34-3.39a5.39,5.39,0,0,0-.54-2.65,1.59,1.59,0,0,0-1.42-.92,3.36,3.36,0,0,0-1.73.55,4.19,4.19,0,0,0-1.51,1.83,7.19,7.19,0,0,0-.62,3.17l-0.83.05a19.19,19.19,0,0,1-.22-3,20.84,20.84,0,0,1,.34-3.92l0.93,0.08a28.2,28.2,0,0,0-.47,3.9h0.08a4.62,4.62,0,0,1,1.57-2.5,3.86,3.86,0,0,1,2.42-.92,2.47,2.47,0,0,1,2.14,1.14,5.71,5.71,0,0,1,.79,3.26,4.64,4.64,0,0,1-1.5,3.9A7.88,7.88,0,0,1,256.34,508.11Z" transform="translate(-145.61 -368.94)"/><path class="cls-1" d="M275.75,507.92h-4.83a10.12,10.12,0,0,1-3-.33,2.37,2.37,0,0,1-1.4-1,7.11,7.11,0,0,1-1.92,1.46l-0.32-.79a7.12,7.12,0,0,0,.9-0.52,6.48,6.48,0,0,0,.82-0.61v-3.59h-1.55v-0.73H267v3.76a1.16,1.16,0,0,0,.39.9,2,2,0,0,0,.91.47q0.52,0.12,1,.18t2.65,0.06q2.84,0,4-.08Zm-9.45-7.8a13.71,13.71,0,0,0-1.41-2l0.74-.46q0.94,1.17,1.48,2Zm5.45,1.49a7.17,7.17,0,0,1-1.3,2.6,7.4,7.4,0,0,1-2.23,2l-0.45-.59a6.42,6.42,0,0,0,2.09-2,8.37,8.37,0,0,0,1.11-2.41,7.74,7.74,0,0,0,.33-1.77l0-.83h-2.54v-0.7h3.42q0,1.24.12,2.48a6.46,6.46,0,0,0,1,2.72,8.72,8.72,0,0,0,2.21,2.5l-0.62.66A9.51,9.51,0,0,1,271.75,501.61Z" transform="translate(-145.61 -368.94)"/><path class="cls-1" d="M278.81,505.45a1.54,1.54,0,0,1-.35,0,1.82,1.82,0,0,1-1.26-.42,1.49,1.49,0,0,1-.47-1.17,2.56,2.56,0,0,1,.69-1.78,2.17,2.17,0,0,1,1.67-.76,1.42,1.42,0,0,1,.75.2v-1.31H277v-0.77h2.76V498h0.94v1.54h2.89v0.77h-2.89v2.53a4.33,4.33,0,0,1-.4,1.54,11,11,0,0,0-.76,1.37,1.43,1.43,0,0,0-.09.44q0,1,2.77,1,0.74,0,1.65-.06a2.63,2.63,0,0,0,1.34-.38,1,1,0,0,0,.43-0.84A6.57,6.57,0,0,0,285,503l0.76-.28a6.68,6.68,0,0,1,.9,3.25,1.54,1.54,0,0,1-.59,1.27,3.22,3.22,0,0,1-1.75.57q-1.16.1-2.1,0.1-3.54,0-3.54-1.61A2.33,2.33,0,0,1,278.81,505.45Zm-1.25-1.63a0.8,0.8,0,0,0,.27.63,0.93,0.93,0,0,0,.65.25,1.14,1.14,0,0,0,1-.53,2.14,2.14,0,0,0,.37-1.26,0.72,0.72,0,0,0-.77-0.86,1.31,1.31,0,0,0-1.06.54A1.9,1.9,0,0,0,277.56,503.82Zm10.27-1.56-0.84.42a10.67,10.67,0,0,0-2.58-3.65l0.63-.49a10.34,10.34,0,0,1,1.6,1.76A9.3,9.3,0,0,1,287.83,502.26Z" transform="translate(-145.61 -368.94)"/><path class="cls-1" d="M289.14,506.39a1.47,1.47,0,0,1,.46-1.09,1.61,1.61,0,0,1,2.24,0,1.51,1.51,0,0,1,0,2.18,1.61,1.61,0,0,1-2.24,0A1.47,1.47,0,0,1,289.14,506.39Zm0.69,0a0.9,0.9,0,1,0,.26-0.63A0.86,0.86,0,0,0,289.82,506.39Z" transform="translate(-145.61 -368.94)"/><path class="cls-1" d="M410.91,487.22V478h-4.38v-0.77h10.7V478h-5.36v2.18q0.85,0.52,2.13,1.15a19.58,19.58,0,0,0,2,.87l-0.47.79a27,27,0,0,1-3.62-1.85v6.08h-1Z" transform="translate(-145.61 -368.94)"/><path class="cls-1" d="M418.67,479.38V478.7h4.41v0.69h-4.41Zm1.13,7.26v0.45H419v-3.61h3.67v3.16H419.8Zm-0.69-8.88v-0.69h3.57v0.69h-3.57Zm0,3.2v-0.67h3.48V481h-3.48Zm0,1.55v-0.67h3.48v0.67h-3.48Zm2.68,1.62h-2V486h2v-1.86Zm2-3.29h3.77v-3h-4.06v-0.74h5v4.85h-0.92v-0.36h-2.87v4.09a0.47,0.47,0,0,0,.28.47,4.27,4.27,0,0,0,1.35.13q0.41,0,.9,0a1.9,1.9,0,0,0,.57-0.09L428,486a1,1,0,0,0,.17-0.59,10.44,10.44,0,0,0,.05-1.08v-0.11l0.79,0.12V486a0.81,0.81,0,0,1-.1.4,0.89,0.89,0,0,1-.27.3,1.3,1.3,0,0,1-.37.18,4.1,4.1,0,0,1-.74.1q-0.55,0-1.22,0-0.52,0-1,0l-0.72-.06a0.76,0.76,0,0,1-.4-0.17,1,1,0,0,1-.27-0.35,1.08,1.08,0,0,1-.09-0.46v-5.09Z" transform="translate(-145.61 -368.94)"/><path class="cls-1" d="M441.11,485.63l-0.59.77a15,15,0,0,0-1.94-1.26,13.62,13.62,0,0,0-2-1v0.68q0,2-2.47,2a4.32,4.32,0,0,1-2.24-.5,1.65,1.65,0,0,1,.07-2.9,4.5,4.5,0,0,1,2.24-.52,7.48,7.48,0,0,1,1.45.15v-6.29h0.95V479h4.07v0.79h-4.07v3.52A15.07,15.07,0,0,1,441.11,485.63Zm-5.47-1.72a6.44,6.44,0,0,0-1.49-.19,3.66,3.66,0,0,0-1.56.32,1,1,0,0,0-.68.88,0.92,0.92,0,0,0,.6.83,3.09,3.09,0,0,0,1.4.3q1.73,0,1.73-1.18v-1Z" transform="translate(-145.61 -368.94)"/><path class="cls-1" d="M446.11,487.11l-0.22-.77a7.91,7.91,0,0,0,3.86-1.12q1.34-.92,1.34-3.39a5.39,5.39,0,0,0-.54-2.65,1.59,1.59,0,0,0-1.42-.92,3.36,3.36,0,0,0-1.73.55,4.19,4.19,0,0,0-1.51,1.83,7.19,7.19,0,0,0-.62,3.17l-0.83.05a19.19,19.19,0,0,1-.22-3,20.84,20.84,0,0,1,.34-3.92L445.5,477a28.2,28.2,0,0,0-.47,3.9h0.08a4.62,4.62,0,0,1,1.57-2.5,3.86,3.86,0,0,1,2.42-.92,2.47,2.47,0,0,1,2.14,1.14,5.71,5.71,0,0,1,.79,3.26,4.64,4.64,0,0,1-1.5,3.9A7.88,7.88,0,0,1,446.11,487.11Z" transform="translate(-145.61 -368.94)"/><path class="cls-1" d="M454.23,483.22l-0.15-.76a16.71,16.71,0,0,0,1.64-.48v-2.47h-1.31v-0.69h1.31v-2.29h0.87v2.29h1v0.69h-1v2.17q0.7-.25,1-0.39l0.12,0.62a9.92,9.92,0,0,1-1.14.51v3.9a0.65,0.65,0,0,1-.29.56,1.14,1.14,0,0,1-.68.21H454.5l-0.1-.75h0.91a0.35,0.35,0,0,0,.42-0.37v-3.21Q454.74,483.09,454.23,483.22Zm4.79,3.87-0.16-.74,1.17-.15v-4.36h-1a11,11,0,0,1-1.24,5.19l-0.65-.39a8.18,8.18,0,0,0,.77-2.24,13.85,13.85,0,0,0,.29-2.89V477h6.95v0.7H459v3.47h6.06v0.69h-2.22a8.23,8.23,0,0,0,.56,2,11.5,11.5,0,0,0,1.27-1.07l0.56,0.53a18.27,18.27,0,0,1-1.52,1.15,7.5,7.5,0,0,0,1.89,2.14l-0.62.6a7.14,7.14,0,0,1-2-2.37,8.12,8.12,0,0,1-.93-2.94h-1.17v4.24q1.52-.21,2.07-0.34l0.06,0.67q-0.43.12-1.81,0.35T459,487.09Zm0.73-7.38V479h5v0.7h-5Z" transform="translate(-145.61 -368.94)"/><path class="cls-1" d="M477.52,486.92h-4.83a10.12,10.12,0,0,1-3-.33,2.37,2.37,0,0,1-1.4-1A7.11,7.11,0,0,1,466.4,487l-0.32-.79a7.12,7.12,0,0,0,.9-0.52,6.48,6.48,0,0,0,.82-0.61v-3.59h-1.55v-0.73h2.47v3.76a1.16,1.16,0,0,0,.39.9,2,2,0,0,0,.91.47q0.52,0.12,1,.18t2.65,0.06q2.84,0,4-.08Zm-9.45-7.8a13.71,13.71,0,0,0-1.41-2l0.74-.46q0.94,1.17,1.48,2Zm5.45,1.49a7.17,7.17,0,0,1-1.3,2.6,7.4,7.4,0,0,1-2.23,2l-0.45-.59a6.42,6.42,0,0,0,2.09-2,8.37,8.37,0,0,0,1.11-2.41,7.74,7.74,0,0,0,.33-1.77l0-.83H470.5v-0.7h3.42q0,1.24.12,2.48a6.46,6.46,0,0,0,1,2.72,8.72,8.72,0,0,0,2.21,2.5l-0.62.66A9.51,9.51,0,0,1,473.51,480.61Z" transform="translate(-145.61 -368.94)"/><path class="cls-1" d="M478.7,487.18l-0.26-.65a4.23,4.23,0,0,0,2.46-1.28,3.77,3.77,0,0,0,.94-2.54h-3.05V482H489v0.73h-3.41v3a0.47,0.47,0,0,0,.14.36,0.64,0.64,0,0,0,.36.16,5.31,5.31,0,0,0,.69,0l0.69,0a1.67,1.67,0,0,0,.46-0.08,0.47,0.47,0,0,0,.21-0.17,1.48,1.48,0,0,0,.13-0.54,9.43,9.43,0,0,0,.05-1.12l0.77,0.07V486a0.92,0.92,0,0,1-.37.76,3.88,3.88,0,0,1-2,.29q-0.54,0-1.09,0a1.18,1.18,0,0,1-.78-0.3,1,1,0,0,1-.23-0.7v-3.27h-1.91Q482.6,486.42,478.7,487.18Zm9.41-7.42v-1.44h-8.47v1.45h-0.86v-2.14h4.61v-1.08h0.93v1.08H489v2.13h-0.84Zm-7.83.6v-0.72h7.13v0.72h-7.12Z" transform="translate(-145.61 -368.94)"/><path class="cls-1" d="M495.35,487.09h-1.9l-0.1-.83H495a0.44,0.44,0,0,0,.53-0.45V480h0.89a13.17,13.17,0,0,0,3.26-2h-8.92v-0.76h10.13l0.42,0.45a9.67,9.67,0,0,1-2.07,1.65,18.79,18.79,0,0,1-2.72,1.48v5.23a1,1,0,0,1-.31.76A1.12,1.12,0,0,1,495.35,487.09Z" transform="translate(-145.61 -368.94)"/><path class="cls-1" d="M511.7,477.2a12.3,12.3,0,0,1-2.08,4.89,33.83,33.83,0,0,1,3.09,2.34l-0.77.73a25.41,25.41,0,0,0-2.91-2.3,11.81,11.81,0,0,1-6,4l-0.41-.81a11.42,11.42,0,0,0,5.61-3.75,40.79,40.79,0,0,0-4-2.35l0.56-.71q2.37,1.22,4,2.3a11.54,11.54,0,0,0,1.89-4.47Z" transform="translate(-145.61 -368.94)"/><path class="cls-1" d="M524.69,482.55H515v-0.87h9.69v0.87Z" transform="translate(-145.61 -368.94)"/><path class="cls-1" d="M529.55,480.29a16.68,16.68,0,0,1-.12,2.25,5.25,5.25,0,0,1-.56,1.71,6.66,6.66,0,0,1-1.1,1.53,5.52,5.52,0,0,1-1.42,1.09l-0.43-.74a5.65,5.65,0,0,0,1.35-1.19,5.24,5.24,0,0,0,1-1.75,10.54,10.54,0,0,0,.33-3.09v-2.47h1v2.67Zm8.34,2.09a7.46,7.46,0,0,1-2.32,2.79,9.27,9.27,0,0,1-3.1,1.61l-0.43-.4v-9.12h1v8.27a6.43,6.43,0,0,0,2.1-1.19,8.4,8.4,0,0,0,2-2.47Z" transform="translate(-145.61 -368.94)"/><path class="cls-1" d="M545.51,484.94h-0.87V483q0-.34,0-0.58-2.7,1.35-2.7,2.46a1,1,0,0,0,.6.88,6.33,6.33,0,0,0,2.54.33,24.61,24.61,0,0,0,3.67-.22l0.06,0.85a27.91,27.91,0,0,1-3.22.16,8.69,8.69,0,0,1-3.67-.49,1.54,1.54,0,0,1-.86-1.41,2.33,2.33,0,0,1,.75-1.61,9.65,9.65,0,0,1,2.64-1.72,0.87,0.87,0,0,0-.86-0.53,5.07,5.07,0,0,0-1.51.25,6.35,6.35,0,0,0-2,1.28l-1,.82-0.5-.6a10.85,10.85,0,0,0,3.2-3.84h-2.73v-0.76h3.05a8.88,8.88,0,0,0,.42-1.41l1,0.08a8.89,8.89,0,0,1-.4,1.32h4.35V479h-4.66a12.52,12.52,0,0,1-1.14,1.78l0.09,0a3,3,0,0,1,.9-0.28,5.6,5.6,0,0,1,1-.14,1.57,1.57,0,0,1,1.55.85l3.45-1.33,0.39,0.79q-1.22.4-3.62,1.29a7.21,7.21,0,0,1,.07,1.11v1.78Z" transform="translate(-145.61 -368.94)"/><path class="cls-1" d="M462.52,507.91h-3.27a34.1,34.1,0,0,1-3.61-.12,4.18,4.18,0,0,1-1.46-.45,2.09,2.09,0,0,1-.85-0.78A7.11,7.11,0,0,1,451.4,508l-0.32-.79a6.69,6.69,0,0,0,.91-0.52,6,6,0,0,0,.82-0.61v-3.57h-1.55v-0.73h2.47v3.76a1.16,1.16,0,0,0,.39.9,2,2,0,0,0,.91.47q0.52,0.12,1,.18t2.65,0.06q2.84,0,4-.08Zm-9.45-7.8a14,14,0,0,0-1.41-2l0.74-.47q0.92,1.14,1.48,2Zm5.2,3.2a5.08,5.08,0,0,1-3.42,3l-0.33-.64a5,5,0,0,0,2-1.22,3.36,3.36,0,0,0,1-1.77h-2.87V502h3.07v-1.9H455v-0.69h1.49l-0.83-1.64,0.88-.24q0.36,0.72.9,1.88H459q0.29-.52.94-1.88l0.92,0.23q-0.37.73-1,1.65h1.72v0.69h-3V502H462v0.7h-3.15a5.65,5.65,0,0,0,3.35,3l-0.5.72a7.23,7.23,0,0,1-1.88-1.14A5.36,5.36,0,0,1,458.26,503.31Z" transform="translate(-145.61 -368.94)"/><path class="cls-1" d="M464.74,508.2v-6a12.2,12.2,0,0,1-1.18,1.69l-0.57-.46a17.2,17.2,0,0,0,1.73-3,14.08,14.08,0,0,0,1.07-3l0.91,0.15a16.27,16.27,0,0,1-1.28,3.38h0.26v7.21h-0.93Zm1.79-7.7v-0.7h7.88v0.7h-7.87Zm6.49,7.21h-5.17v0.37H467v-3.3h6.93V508H473v-0.33Zm-5.75-8.89v-0.7h6.42v0.7h-6.42Zm0,3.32v-0.67h6.33v0.67h-6.33Zm0,1.64v-0.66h6.33v0.66h-6.33Zm0.57,3.25H473v-1.58h-5.17V507Z" transform="translate(-145.61 -368.94)"/><path class="cls-1" d="M486.36,500h-3.7v2.26a3.78,3.78,0,0,1,.39,1.86,3.41,3.41,0,0,1-1.15,2.6,4.43,4.43,0,0,1-2.82,1.16l-0.24-.73a3.81,3.81,0,0,0,2.36-1,2.78,2.78,0,0,0,1-2.15,3,3,0,0,0,0-.39,1.72,1.72,0,0,1-.69,1.07,2.15,2.15,0,0,1-1.29.39,2.06,2.06,0,0,1-1.45-.54,1.77,1.77,0,0,1-.59-1.36,2.08,2.08,0,0,1,.67-1.57,2.28,2.28,0,0,1,1.63-.63,2.1,2.1,0,0,1,1.29.43V500h-5.87v-0.77h5.87v-1.4h0.94v1.4h3.7V500Zm-4.63,2.38a1.41,1.41,0,0,0-1.39-.66,1.26,1.26,0,0,0-.92.43,1.39,1.39,0,0,0-.08,1.86,1.11,1.11,0,0,0,.86.35,1.42,1.42,0,0,0,1.1-.45,1.75,1.75,0,0,0,.43-1.18v-0.33Z" transform="translate(-145.61 -368.94)"/><path class="cls-1" d="M494.5,507q2.2-.53,2.2-2.26a1.93,1.93,0,0,0-.81-1.66,3.6,3.6,0,0,0-2.16-.59,7,7,0,0,0-1.81.23,7.63,7.63,0,0,0-2,1,15.8,15.8,0,0,0-1.6,1.1l-0.43-.72q3.57-2.3,7-4.85l-5.93,0v-0.78h7.15l0.41,0.6-4.13,2.86,0,0.07a4.88,4.88,0,0,1,1.42-.22,4.63,4.63,0,0,1,2.76.77,2.48,2.48,0,0,1,1.08,2.14,2.72,2.72,0,0,1-1.32,2.44,6.56,6.56,0,0,1-3.55.84q-3.06,0-3.06-1.68a1.33,1.33,0,0,1,.63-1.11,2.34,2.34,0,0,1,1.39-.45,2.86,2.86,0,0,1,1.82.59A2.58,2.58,0,0,1,494.5,507Zm-0.86.15a1.78,1.78,0,0,0-1.83-1.68,1.58,1.58,0,0,0-.85.23,0.71,0.71,0,0,0-.38.62q0,0.9,2.07.9A7.57,7.57,0,0,0,493.64,507.16Z" transform="translate(-145.61 -368.94)"/><path class="cls-1" d="M499.91,506.39a1.47,1.47,0,0,1,.46-1.09,1.61,1.61,0,0,1,2.24,0,1.51,1.51,0,0,1,0,2.18,1.61,1.61,0,0,1-2.24,0A1.47,1.47,0,0,1,499.91,506.39Zm0.69,0a0.9,0.9,0,1,0,.26-0.63A0.86,0.86,0,0,0,500.59,506.39Z" transform="translate(-145.61 -368.94)"/><path class="cls-1" d="M683.6,478l-0.4-.67a8.81,8.81,0,0,0,3.76-3.15,8.45,8.45,0,0,0,1.41-4.12s0-.1,0-0.16v-1.14h-3.19V468h4.17q0,1.51,0,1.71a10,10,0,0,0,.17,1.41,8,8,0,0,0,.49,1.54,8.93,8.93,0,0,0,1,1.7,10.65,10.65,0,0,0,1.4,1.6,11.15,11.15,0,0,0,1.75,1.34l-0.66.73a11.17,11.17,0,0,1-4.55-5.81A9.1,9.1,0,0,1,683.6,478Z" transform="translate(-145.61 -368.94)"/><path class="cls-1" d="M702.54,477.11a24.78,24.78,0,0,0,1-2.42l1,0.23q-0.37.77-1.08,2.19h2.32v0.71H695.52v-0.71h2.2a18.94,18.94,0,0,0-.83-2.19l0.9-.23,0.9,2.42h1.44V474H696v-0.73h4.14v-1.73h-2.34v-0.67a16.32,16.32,0,0,1-2.5,1.45l-0.43-.62a13.57,13.57,0,0,0,2.85-1.79,9.07,9.07,0,0,0,2.32-2.37h1.24a10.84,10.84,0,0,0,2.2,2.17,12.87,12.87,0,0,0,3,1.77l-0.5.71a13.39,13.39,0,0,1-2.92-1.75,12,12,0,0,1-2.38-2.26,13.52,13.52,0,0,1-2.91,2.68h5.76v0.69H701v1.73h4.32V474H701v3.14h1.51Z" transform="translate(-145.61 -368.94)"/><path class="cls-1" d="M714.28,475.94h-0.87V474q0-.34,0-0.58-2.7,1.35-2.7,2.46a1,1,0,0,0,.6.88,6.33,6.33,0,0,0,2.54.33,24.61,24.61,0,0,0,3.67-.22l0.06,0.85a27.91,27.91,0,0,1-3.22.16,8.69,8.69,0,0,1-3.67-.49,1.54,1.54,0,0,1-.86-1.41,2.33,2.33,0,0,1,.75-1.61,9.65,9.65,0,0,1,2.64-1.72,0.87,0.87,0,0,0-.86-0.53,5.07,5.07,0,0,0-1.51.25,6.35,6.35,0,0,0-2,1.28l-1,.82-0.5-.6a10.85,10.85,0,0,0,3.2-3.84h-2.73v-0.76h3.05a8.88,8.88,0,0,0,.42-1.41l1,0.08a8.89,8.89,0,0,1-.4,1.32h4.35V470h-4.66a12.52,12.52,0,0,1-1.14,1.78l0.09,0a3,3,0,0,1,.9-0.28,5.6,5.6,0,0,1,1-.14,1.57,1.57,0,0,1,1.55.85l3.45-1.33,0.39,0.79q-1.22.4-3.62,1.29a7.21,7.21,0,0,1,.07,1.11v1.78Z" transform="translate(-145.61 -368.94)"/><path class="cls-1" d="M721,476.58v0.81h-0.82v-4.7a9.53,9.53,0,0,1-.92,1.43l-0.5-.4a13,13,0,0,0,1.93-5.14h-1.41v-0.69h4v0.69h-1.69a11.32,11.32,0,0,1-.69,2.52H723v5.48h-2Zm1.17-4.81H721v4.14h1.18v-4.14ZM728,477h2.25v0.71h-4.87v0.43h-0.92V472.7q-0.37.4-.82,0.81l-0.53-.5a9.8,9.8,0,0,0,1.63-1.94,8.43,8.43,0,0,0,.85-1.88h-1.3v1.08h-0.79v-1.73h2.26a8.64,8.64,0,0,0,.19-1.13l0.93,0.09q0,0.35-.17,1H730v1.73h-0.79v-1.08H726.5a9.85,9.85,0,0,1-1,2.11h1.66q0.31-.85.45-1.3l0.89,0.1L728,471.3h2.27V472H728v1.14h1.83v0.67H728V475h1.83v0.67H728V477ZM725.36,472v1.14h1.71V472h-1.71Zm0,3h1.71v-1.22h-1.71V475Zm0,2h1.71v-1.34h-1.71V477Z" transform="translate(-145.61 -368.94)"/><path class="cls-1" d="M731.15,470.3v-0.67h3.79v0.67h-3.79Zm1.13,7.31v0.45h-0.83v-3.63h3.16v3.18h-2.33Zm-0.69-8.9V468h3v0.67h-3Zm0,3.16v-0.67h3v0.67h-3Zm0,1.58v-0.67h3v0.67h-3Zm2.18,1.63h-1.51V477h1.51v-1.87Zm4.24-4.21a5.07,5.07,0,0,1-2.7,2.34L735,472.6a4.39,4.39,0,0,0,2.28-2l-1.36-.49,0.33-.62q0.47,0.14,1.31.45a5.27,5.27,0,0,0,.23-1.19h-2V468h6.08v1.24a12,12,0,0,1-.11,1.82,2.81,2.81,0,0,1-.28,1,1.33,1.33,0,0,1-.44.45,1.73,1.73,0,0,1-.59.23,5.92,5.92,0,0,1-1,.06h-0.68l-0.11-.75h1.07a1,1,0,0,0,1-.5,4.28,4.28,0,0,0,.28-1.9q0-.19,0-0.92h-2.32a6.11,6.11,0,0,1-.32,1.48q0.9,0.34,1.28.53l-0.4.64Q738.89,471.22,738,470.87Zm-2.3,6.75-0.75-.21a8.4,8.4,0,0,0,.58-2.29l0.77,0.08A10.42,10.42,0,0,1,735.72,477.62Zm1.22-3.49h0.86v2.67a0.42,0.42,0,0,0,.11.31,0.46,0.46,0,0,0,.25.14,3.05,3.05,0,0,0,.45,0,2.66,2.66,0,0,0,.83-0.07,0.72,0.72,0,0,0,.22-0.18,1.24,1.24,0,0,0,.13-0.57q0-.46,0-0.66l0.73,0.11V477a0.83,0.83,0,0,1-.18.56,0.94,0.94,0,0,1-.53.29,6.62,6.62,0,0,1-1.26.08,7.69,7.69,0,0,1-.89,0,0.87,0.87,0,0,1-.57-0.27,0.93,0.93,0,0,1-.2-0.64v-2.89Zm2,1a17.7,17.7,0,0,0-.94-1.75l0.71-.27a12,12,0,0,1,1,1.73Zm2.65,1.89a12.32,12.32,0,0,0-.47-1.27q-0.35-.84-0.57-1.25l0.73-.3a15.06,15.06,0,0,1,1.14,2.55Z" transform="translate(-145.61 -368.94)"/><path class="cls-1" d="M744.8,478.2v-4.9a12.7,12.7,0,0,1-1.52,1.53l-0.54-.55a12.27,12.27,0,0,0,1.75-1.9,13.66,13.66,0,0,0,1.49-2.29l0.87,0.3a17.58,17.58,0,0,1-1.47,2.2h0.31v5.61h-0.9Zm-1.26-7.47-0.5-.56a10.43,10.43,0,0,0,2.54-2.63l0.83,0.33a11.45,11.45,0,0,1-1.37,1.62A9,9,0,0,1,743.54,470.73Zm4.39,3.92a10.09,10.09,0,0,1-1.37,1l-0.45-.55a10.42,10.42,0,0,0,1.6-1.25,6.24,6.24,0,0,0,1.12-1.33l-2.14.09-0.11-.73h0.16q0.7,0,1.93,0,0.29-.26.64-0.61l-2.42-2,0.65-.54,0.51,0.42a13.05,13.05,0,0,0,1.31-1.76l0.88,0.32a18.83,18.83,0,0,1-1.61,1.93l1.25,1a21.26,21.26,0,0,0,2.06-2.5l0.86,0.38a27.81,27.81,0,0,1-3,3.29q1.61-.08,2.83-0.2a8.43,8.43,0,0,0-.64-0.83l0.71-.38a16.76,16.76,0,0,1,1.55,2.12l-0.81.37q-0.13-.25-0.39-0.64-1.17.13-3.23,0.26a8.21,8.21,0,0,1-.73,1h4.21l0.33,0.31a7.58,7.58,0,0,1-2.35,2.56,11.93,11.93,0,0,0,3.1,1l-0.43.74a12.19,12.19,0,0,1-3.47-1.24,11.07,11.07,0,0,1-3.84,1.32l-0.22-.67a11.23,11.23,0,0,0,3.32-1.12A7.29,7.29,0,0,1,747.93,474.65Zm2.57,1.29a6.79,6.79,0,0,0,1.82-1.76h-3.76A7,7,0,0,0,750.51,475.94Z" transform="translate(-145.61 -368.94)"/><path class="cls-1" d="M650,496.18a4,4,0,0,0,2.14,1.55l0.11,0v-5.46H649V491.6h7.25v0.71h-3.12v2.18H657v0.7h-3.81V498a17.86,17.86,0,0,0,3,.19l2,0-0.2.76h-1q-1.92,0-2.8-.06a12.16,12.16,0,0,1-1.7-.23,5.66,5.66,0,0,1-1.58-.59,4.41,4.41,0,0,1-1.24-1,5,5,0,0,1-2,2.09l-0.46-.59a4.05,4.05,0,0,0,1.28-1.19,4.88,4.88,0,0,0,.68-1.49,8.86,8.86,0,0,0,.21-2.17v-0.21h0.89A11.08,11.08,0,0,1,650,496.18Zm7.13-4.34v-1.35h-8.84v1.43h-0.84v-2.16h4.83v-1.31h0.94v1.31H658v2.08H657.1Z" transform="translate(-145.61 -368.94)"/><path class="cls-1" d="M662.88,498.63h-2.35v0.44h-0.79v-3.47l-0.63.28-0.31-.54a9.06,9.06,0,0,0,2.51-1.47,5.48,5.48,0,0,1-.95-1.28,7.55,7.55,0,0,1-.94,1l-0.42-.42a7.4,7.4,0,0,0,1.79-2.79l0.74,0.15a4.55,4.55,0,0,1-.33.74h2.29l0.29,0.27a6,6,0,0,1-1.46,2.3,7.17,7.17,0,0,0,2.3,1.21l-0.37.62a7.72,7.72,0,0,1-2.44-1.37,9.8,9.8,0,0,1-2,1.26h3.91V499h-0.81v-0.4Zm0.87-7.55v-0.93h-3.91v1h-0.69v-1.66h2.24v-1h0.83v1h2.24v1.56h-0.71ZM660.53,498h2.35v-1.78h-2.35V498Zm1.27-4.59a5,5,0,0,0,1-1.56h-1.93l-0.1.16A5,5,0,0,0,661.8,493.39Zm2.58,5.74-0.35-.59a8,8,0,0,0,2.22-1.34l0.52,0.57A7.9,7.9,0,0,1,664.39,499.14Zm0.74-2.09v-6.33h1.61l0.37-1.15h-2.26v-0.69h5.4v0.69H668l-0.47,1.15h2.24V497h-4.62Zm0.86-4.45h2.89v-1.22H666v1.22Zm0,1.8h2.89v-1.18H666v1.18Zm2.89,0.63H666v1.34h2.89V495Zm1.16,4.13a9.08,9.08,0,0,1-2.16-1.39l0.52-.55a8.49,8.49,0,0,0,2.12,1.27Z" transform="translate(-145.61 -368.94)"/><path class="cls-1" d="M674.36,495.35h-1v-3H671v-0.85h2.32v-2.47h1v2.47h4.86v-2.64h1v2.64h2.21v0.85h-2.21v1.42q0,4.91-6.78,5.13l-0.19-.87q3.28-.12,4.62-1.25a3.72,3.72,0,0,0,1.34-3v-1.44h-4.86v3Z" transform="translate(-145.61 -368.94)"/><path class="cls-1" d="M693.46,494.55h-9.69v-0.87h9.69v0.87Z" transform="translate(-145.61 -368.94)"/><path class="cls-1" d="M705.58,498.63h-6a5.17,5.17,0,0,1-1.18-.12,2.48,2.48,0,0,1-.86-0.36,1.63,1.63,0,0,1-.54-0.63,3.11,3.11,0,0,1-.19-1.27v-7.32h1v3.65a31.8,31.8,0,0,0,7-1.86l0.49,0.89a21.37,21.37,0,0,1-3.35,1q-2.37.56-4.12,0.79v2.77a2.47,2.47,0,0,0,.14.95,0.92,0.92,0,0,0,.62.46,4.42,4.42,0,0,0,1.28.15h5.76v0.91ZM703.93,490l-0.67.3a13,13,0,0,0-.85-1.65l0.64-.29A11.91,11.91,0,0,1,703.93,490Zm1.71-.36-0.67.28a11.52,11.52,0,0,0-.84-1.62l0.61-.29A14,14,0,0,1,705.64,489.67Z" transform="translate(-145.61 -368.94)"/><path class="cls-1" d="M718.34,498.34l-0.83.64q-1.61-1.65-4.39-4a18.31,18.31,0,0,1-5.79,3.95l-0.45-.74a16.89,16.89,0,0,0,4.81-3.12,12,12,0,0,0,3.35-4.67h-6.69v-0.81h7.74l0.24,0.22a12.93,12.93,0,0,1-2.63,4.54Q715.5,495.74,718.34,498.34Z" transform="translate(-145.61 -368.94)"/><path class="cls-1" d="M720.55,492.51v6.67h-0.9V488.85h4.22v3.66h-3.32Zm0-2.12H723V489.5h-2.45v0.89ZM723,491h-2.45v0.87H723V491Zm-1,7.87-0.47-.54a3,3,0,0,0,1.27-2.19H721.4v-0.69h1.45V494h-1.11v-0.69h5.79V494h-1.19v1.44h1.51v0.69h-1.51v2.67h-0.87v-2.67h-1.79A3.61,3.61,0,0,1,722,498.88Zm1.73-4.86v1.06q0,0.22,0,.38h1.75V494h-1.74Zm4.83,5h-1.41l-0.1-.8h1.14q0.51,0,.51-0.39v-5.36h-3.37v-3.66h4.29v9.33a0.79,0.79,0,0,1-.3.63A1.16,1.16,0,0,1,728.56,499.06Zm-2.36-8.67h2.51V489.5H726.2v0.89ZM728.7,491H726.2v0.87h2.51V491Z" transform="translate(-145.61 -368.94)"/><path class="cls-1" d="M731.31,499.17l-0.4-.58a7.26,7.26,0,0,0,2-1.87q-0.69-.53-1.45-1.08a0.24,0.24,0,0,1-.09-0.21s0-.13.08-0.33,0.13-.63.25-1.28,0.24-1.43.38-2.33h-0.94v-0.69h1q0.25-1.71.29-2.34l0.94,0.06q-0.06.63-.33,2.28h2.06v0.74a9.92,9.92,0,0,1-1.12,5q0.87,0.67,1.24,1l-0.56.67a13,13,0,0,0-1.12-1A7.55,7.55,0,0,1,731.31,499.17Zm2-3.12a8.92,8.92,0,0,0,.94-4.31v-0.26H733a37.25,37.25,0,0,1-.74,3.77Zm2.4-3-0.12-.73,0.81,0a17.79,17.79,0,0,0,1.42-3.83l1,0.17a21.45,21.45,0,0,1-1.48,3.6q2.12-.14,3.35-0.3-0.53-.93-1-1.67l0.77-.37a27.27,27.27,0,0,1,1.89,3.19l-0.86.36q-0.16-.37-0.43-0.87Q739.53,492.77,735.75,493Zm4.85,5.62h-3.7v0.42H736v-4.81h5.51V499H740.6v-0.39Zm-3.7-.69h3.7v-3h-3.7v3Z" transform="translate(-145.61 -368.94)"/><path class="cls-1" d="M752.47,489.2a12.3,12.3,0,0,1-2.08,4.89,33.83,33.83,0,0,1,3.09,2.34l-0.77.73a25.41,25.41,0,0,0-2.91-2.3,11.81,11.81,0,0,1-6,4l-0.41-.81A11.42,11.42,0,0,0,749,494.3a40.79,40.79,0,0,0-4-2.35l0.56-.71q2.37,1.22,4,2.3a11.54,11.54,0,0,0,1.89-4.47Z" transform="translate(-145.61 -368.94)"/><path class="cls-1" d="M765.46,494.55h-9.69v-0.87h9.69v0.87Z" transform="translate(-145.61 -368.94)"/><path class="cls-1" d="M770.32,492.29a16.68,16.68,0,0,1-.12,2.25,5.25,5.25,0,0,1-.56,1.71,6.66,6.66,0,0,1-1.1,1.53,5.52,5.52,0,0,1-1.42,1.09l-0.43-.74a5.65,5.65,0,0,0,1.35-1.19,5.24,5.24,0,0,0,1-1.75,10.54,10.54,0,0,0,.33-3.09v-2.47h1v2.67Zm8.34,2.09a7.46,7.46,0,0,1-2.32,2.79,9.27,9.27,0,0,1-3.1,1.61l-0.43-.4v-9.12h1v8.27a6.43,6.43,0,0,0,2.1-1.19,8.4,8.4,0,0,0,2-2.47Z" transform="translate(-145.61 -368.94)"/><path class="cls-1" d="M786.28,496.94h-0.87V495q0-.34,0-0.58-2.7,1.35-2.7,2.46a1,1,0,0,0,.6.88,6.33,6.33,0,0,0,2.54.33,24.61,24.61,0,0,0,3.67-.22l0.06,0.85a27.91,27.91,0,0,1-3.22.16,8.69,8.69,0,0,1-3.67-.49,1.54,1.54,0,0,1-.86-1.41,2.33,2.33,0,0,1,.75-1.61,9.65,9.65,0,0,1,2.64-1.72,0.87,0.87,0,0,0-.86-0.53,5.07,5.07,0,0,0-1.51.25,6.35,6.35,0,0,0-2,1.28l-1,.82-0.5-.6a10.85,10.85,0,0,0,3.2-3.84h-2.73v-0.76h3.05a8.88,8.88,0,0,0,.42-1.41l1,0.08a8.89,8.89,0,0,1-.4,1.32h4.35V491h-4.66a12.52,12.52,0,0,1-1.14,1.78l0.09,0a3,3,0,0,1,.9-0.28,5.6,5.6,0,0,1,1-.14,1.57,1.57,0,0,1,1.55.85l3.45-1.33,0.39,0.79q-1.22.4-3.62,1.29a7.21,7.21,0,0,1,.07,1.11v1.78Z" transform="translate(-145.61 -368.94)"/><path class="cls-1" d="M697.29,519.91H694a34.1,34.1,0,0,1-3.61-.12,4.18,4.18,0,0,1-1.46-.45,2.09,2.09,0,0,1-.85-0.78,7.11,7.11,0,0,1-1.92,1.46l-0.32-.79a6.69,6.69,0,0,0,.91-0.52,6,6,0,0,0,.82-0.61v-3.57H686v-0.73h2.47v3.76a1.16,1.16,0,0,0,.39.9,2,2,0,0,0,.91.47q0.52,0.12,1,.18t2.65,0.06q2.84,0,4-.08Zm-9.45-7.8a14,14,0,0,0-1.41-2l0.74-.47q0.92,1.14,1.48,2Zm5.2,3.2a5.08,5.08,0,0,1-3.42,3l-0.33-.64a5,5,0,0,0,2-1.22,3.36,3.36,0,0,0,1-1.77h-2.87V514h3.07v-1.9h-2.74v-0.69h1.49l-0.83-1.64,0.88-.24q0.36,0.72.9,1.88h1.57q0.29-.52.94-1.88l0.92,0.23q-0.37.73-1,1.65h1.72v0.69h-3V514h3.38v0.7h-3.15a5.65,5.65,0,0,0,3.35,3l-0.5.72a7.23,7.23,0,0,1-1.88-1.14A5.36,5.36,0,0,1,693,515.31Z" transform="translate(-145.61 -368.94)"/><path class="cls-1" d="M699.51,520.2v-6a12.2,12.2,0,0,1-1.18,1.69l-0.57-.46a17.2,17.2,0,0,0,1.73-3,14.08,14.08,0,0,0,1.07-3l0.91,0.15a16.27,16.27,0,0,1-1.28,3.38h0.26v7.21h-0.93Zm1.79-7.7v-0.7h7.88v0.7H701.3Zm6.49,7.21h-5.17v0.37h-0.88v-3.3h6.93V520h-0.88v-0.33ZM702,510.81v-0.7h6.42v0.7H702Zm0,3.32v-0.67h6.33v0.67H702Zm0,1.64v-0.66h6.33v0.66H702Zm0.57,3.25h5.17v-1.58h-5.17V519Z" transform="translate(-145.61 -368.94)"/><path class="cls-1" d="M720.79,515.33a6.85,6.85,0,0,1-2,3.45,4.93,4.93,0,0,1-3.32,1.1,5.67,5.67,0,0,1-1.41-.16,3.15,3.15,0,0,1-1.05-.47,2.38,2.38,0,0,1-.7-0.79,2.84,2.84,0,0,1-.34-1,15.67,15.67,0,0,1-.07-1.82q0-2.16.26-5.31h1a53,53,0,0,0-.31,5.36q0,0.81,0,1.37a2.17,2.17,0,0,0,.34,1,1.87,1.87,0,0,0,.9.72,4.43,4.43,0,0,0,4.13-.65A6.4,6.4,0,0,0,720,515Z" transform="translate(-145.61 -368.94)"/><path class="cls-1" d="M732.52,518.54l-0.5.78a14,14,0,0,0-3.53-1.83v0.87q0,1.51-2.79,1.51a3.67,3.67,0,0,1-1.91-.48,1.46,1.46,0,0,1-.8-1.31,1.57,1.57,0,0,1,.76-1.37,3.23,3.23,0,0,1,1.83-.51,8,8,0,0,1,2,.22v-1.73h-4.44v-0.77h4.44v-1.79H722.8v-0.77h4.75v-1.26h0.91v1.26h4.35v0.77h-4.35v1.79h3.84v0.77h-3.84v1.93A21.72,21.72,0,0,1,732.52,518.54Zm-4.95-.49v-0.83a5.89,5.89,0,0,0-2-.28,2.47,2.47,0,0,0-1.19.29,0.87,0.87,0,0,0-.54.77,0.84,0.84,0,0,0,.55.78,3.13,3.13,0,0,0,1.37.27,3.65,3.65,0,0,0,1.15-.13,1.22,1.22,0,0,0,.5-0.3A0.88,0.88,0,0,0,727.57,518Z" transform="translate(-145.61 -368.94)"/><path class="cls-1" d="M745.13,512h-3.7v2.26a3.78,3.78,0,0,1,.39,1.86,3.41,3.41,0,0,1-1.15,2.6,4.43,4.43,0,0,1-2.82,1.16l-0.24-.73a3.81,3.81,0,0,0,2.36-1,2.78,2.78,0,0,0,1-2.15,3,3,0,0,0,0-.39,1.72,1.72,0,0,1-.69,1.07,2.15,2.15,0,0,1-1.29.39,2.06,2.06,0,0,1-1.45-.54,1.77,1.77,0,0,1-.59-1.36,2.08,2.08,0,0,1,.67-1.57,2.28,2.28,0,0,1,1.63-.63,2.1,2.1,0,0,1,1.29.43V512h-5.87v-0.77h5.87v-1.4h0.94v1.4h3.7V512Zm-4.63,2.38a1.41,1.41,0,0,0-1.39-.66,1.26,1.26,0,0,0-.92.43,1.39,1.39,0,0,0-.08,1.86,1.11,1.11,0,0,0,.86.35,1.42,1.42,0,0,0,1.1-.45,1.75,1.75,0,0,0,.43-1.18v-0.33Z" transform="translate(-145.61 -368.94)"/><path class="cls-1" d="M746.67,518.39a1.47,1.47,0,0,1,.46-1.09,1.61,1.61,0,0,1,2.24,0,1.51,1.51,0,0,1,0,2.18,1.61,1.61,0,0,1-2.24,0A1.47,1.47,0,0,1,746.67,518.39Zm0.69,0a0.9,0.9,0,1,0,.26-0.63A0.86,0.86,0,0,0,747.36,518.39Z" transform="translate(-145.61 -368.94)"/><circle class="cls-2" cx="91.52" cy="91.52" r="90.77"/><circle class="cls-2" cx="332.29" cy="91.52" r="90.77"/><circle class="cls-2" cx="573.06" cy="91.52" r="90.77"/><polygon class="cls-1" points="205.72 102.47 205.72 80.57 221.5 91.52 205.72 102.47"/><polygon class="cls-1" points="448.72 102.47 448.72 80.57 464.5 91.52 448.72 102.47"/><path class="cls-1" d="M260,402.23l0.88-1.71h5.49v28.73h-1.83v-27H260Z" transform="translate(-145.61 -368.94)"/><path class="cls-1" d="M208.8,411.95a4.4,4.4,0,0,0-3.91-2.27,3.62,3.62,0,0,0-3.63,3.68c0,2,1.92,2.86,3.47,3.6l3.68,1.92a4.21,4.21,0,0,1,2.2,3.83,6,6,0,0,1-11.7,1.46l1.07-.49a4.9,4.9,0,0,0,4.65,3.47,4.68,4.68,0,0,0,4.75-4.55c0-2.17-2.22-3.09-3.88-3.91L202,416.85a3.86,3.86,0,0,1-2-3.45,4.71,4.71,0,0,1,4.93-4.88,5.4,5.4,0,0,1,4.7,2.71Z" transform="translate(-145.61 -368.94)"/><path class="cls-1" d="M218.07,428h-1.23V409.93h-5v-1.15H223v1.15h-5V428Z" transform="translate(-145.61 -368.94)"/><path class="cls-1" d="M226.49,409.93v7h7.77v1.15h-7.77v8.81h8V428h-9.2V408.78h9.2v1.15h-8Z" transform="translate(-145.61 -368.94)"/><path class="cls-1" d="M239.44,428h-1.23V408.78h3.4a6,6,0,0,1,4.16,1.12,5.34,5.34,0,0,1,.13,7.76,6.38,6.38,0,0,1-4.29,1.23h-2.17V428Zm2.22-10.29a4.64,4.64,0,0,0,3.37-1,3.77,3.77,0,0,0,1.25-2.89,3.84,3.84,0,0,0-1.46-3.12,5.33,5.33,0,0,0-3.37-.77h-2v7.82h2.22Z" transform="translate(-145.61 -368.94)"/><path class="cls-1" d="M253.21,427.25a1,1,0,1,1-1-1A1,1,0,0,1,253.21,427.25Z" transform="translate(-145.61 -368.94)"/><path class="cls-1" d="M515.61,427.53v1.71H497.89l10.71-11.77c2.17-2.4,5.3-5.68,5.3-9a6.66,6.66,0,0,0-6.78-6.59,6.5,6.5,0,0,0-6.78,6.78H498.5a8.11,8.11,0,0,1,1.79-5.45,9.54,9.54,0,0,1,6.82-3,8.42,8.42,0,0,1,8.61,8.42c0,3.85-2.93,7-5.41,9.68l-8.34,9.3h13.64Z" transform="translate(-145.61 -368.94)"/><path class="cls-1" d="M447.9,411.95a4.4,4.4,0,0,0-3.91-2.27,3.62,3.62,0,0,0-3.63,3.68c0,2,1.92,2.86,3.47,3.6l3.68,1.92a4.21,4.21,0,0,1,2.2,3.83,6,6,0,0,1-11.7,1.46l1.07-.49a4.9,4.9,0,0,0,4.65,3.47,4.68,4.68,0,0,0,4.75-4.55c0-2.17-2.22-3.09-3.88-3.91l-3.47-1.84a3.86,3.86,0,0,1-2-3.45,4.71,4.71,0,0,1,4.93-4.88,5.4,5.4,0,0,1,4.7,2.71Z" transform="translate(-145.61 -368.94)"/><path class="cls-1" d="M457.17,428h-1.23V409.93h-5v-1.15h11.19v1.15h-5V428Z" transform="translate(-145.61 -368.94)"/><path class="cls-1" d="M465.6,409.93v7h7.77v1.15H465.6v8.81h8V428h-9.2V408.78h9.2v1.15h-8Z" transform="translate(-145.61 -368.94)"/><path class="cls-1" d="M478.55,428h-1.23V408.78h3.4a6,6,0,0,1,4.16,1.12,5.34,5.34,0,0,1,.13,7.76,6.38,6.38,0,0,1-4.29,1.23h-2.17V428Zm2.22-10.29a4.64,4.64,0,0,0,3.37-1,3.77,3.77,0,0,0,1.25-2.89,3.84,3.84,0,0,0-1.46-3.12,5.33,5.33,0,0,0-3.37-.77h-2v7.82h2.22Z" transform="translate(-145.61 -368.94)"/><path class="cls-1" d="M492.31,427.25a1,1,0,1,1-1-1A1,1,0,0,1,492.31,427.25Z" transform="translate(-145.61 -368.94)"/><path class="cls-1" d="M747.54,413.43a6,6,0,0,0,6.1-6,5.65,5.65,0,0,0-5.68-5.6c-3.31,0-5.37,2.17-5.56,5.45h-1.83c0.3-4.34,3-7.16,7.43-7.16a7.39,7.39,0,0,1,7.47,7.39,7.18,7.18,0,0,1-4.31,6.67,7.47,7.47,0,0,1,4.72,7,8.29,8.29,0,0,1-8.42,8.46c-4.31,0-8-3-8-7.43h1.83a5.92,5.92,0,0,0,6.1,5.71,6.71,6.71,0,0,0,6.63-6.63c0-3.73-2.93-6.13-6.52-6.13v-1.71Z" transform="translate(-145.61 -368.94)"/><path class="cls-1" d="M688.67,411.95a4.4,4.4,0,0,0-3.91-2.27,3.62,3.62,0,0,0-3.63,3.68c0,2,1.92,2.86,3.47,3.6l3.68,1.92a4.21,4.21,0,0,1,2.2,3.83,5.89,5.89,0,0,1-6,5.59,6,6,0,0,1-5.67-4.14l1.07-.49a4.9,4.9,0,0,0,4.65,3.47,4.69,4.69,0,0,0,4.75-4.55c0-2.17-2.22-3.09-3.88-3.91l-3.47-1.84a3.86,3.86,0,0,1-2-3.45,4.71,4.71,0,0,1,4.93-4.88,5.4,5.4,0,0,1,4.7,2.71Z" transform="translate(-145.61 -368.94)"/><path class="cls-1" d="M697.94,428h-1.23V409.93h-5v-1.15h11.19v1.15h-5V428Z" transform="translate(-145.61 -368.94)"/><path class="cls-1" d="M706.37,409.93v7h7.77v1.15h-7.77v8.81h8V428h-9.2V408.78h9.2v1.15h-8Z" transform="translate(-145.61 -368.94)"/><path class="cls-1" d="M719.32,428h-1.23V408.78h3.4a6,6,0,0,1,4.16,1.12,5.34,5.34,0,0,1,.13,7.76,6.38,6.38,0,0,1-4.29,1.23h-2.17V428Zm2.22-10.29a4.64,4.64,0,0,0,3.37-1,3.77,3.77,0,0,0,1.25-2.89,3.84,3.84,0,0,0-1.46-3.12,5.33,5.33,0,0,0-3.37-.77h-2v7.82h2.22Z" transform="translate(-145.61 -368.94)"/><path class="cls-1" d="M733.08,427.25a1,1,0,1,1-1-1A1,1,0,0,1,733.08,427.25Z" transform="translate(-145.61 -368.94)"/></svg>